<svg preserveAspectRatio="none" width="100%" height="100%" overflow="visible" style="display: block;" viewBox="0 0 32 32" fill="none" xmlns="http://www.w3.org/2000/svg">
<g id="Background">
<rect width="32" height="32" rx="9.6" fill="var(--fill-0, #F3E8FF)"/>
<path id="Icon" d="M19.5999 16.6001L16.2799 13.3601C15.8666 12.9601 15.5166 12.5168 15.2299 12.0301C14.9433 11.5435 14.7999 11.0135 14.7999 10.4401C14.7999 9.7068 15.0566 9.08346 15.5699 8.57013C16.0833 8.0568 16.7066 7.80013 17.4399 7.80013C17.8666 7.80013 18.2666 7.89013 18.6399 8.07013C19.0133 8.25013 19.3333 8.49346 19.5999 8.80013C19.8666 8.49346 20.1866 8.25013 20.5599 8.07013C20.9333 7.89013 21.3333 7.80013 21.7599 7.80013C22.4933 7.80013 23.1166 8.0568 23.6299 8.57013C24.1433 9.08346 24.3999 9.7068 24.3999 10.4401C24.3999 11.0135 24.2599 11.5435 23.9799 12.0301C23.6999 12.5168 23.3533 12.9601 22.9399 13.3601L19.5999 16.6001ZM19.5999 14.3601L21.7799 12.2201C22.0333 11.9668 22.2666 11.6968 22.4799 11.4101C22.6933 11.1235 22.7999 10.8001 22.7999 10.4401C22.7999 10.1468 22.6999 9.90013 22.4999 9.70013C22.2999 9.50013 22.0533 9.40013 21.7599 9.40013C21.5733 9.40013 21.3966 9.4368 21.2299 9.51013C21.0633 9.58346 20.9199 9.69346 20.7999 9.84013L19.5999 11.2801L18.3999 9.84013C18.2799 9.69346 18.1366 9.58346 17.9699 9.51013C17.8033 9.4368 17.6266 9.40013 17.4399 9.40013C17.1466 9.40013 16.8999 9.50013 16.6999 9.70013C16.4999 9.90013 16.3999 10.1468 16.3999 10.4401C16.3999 10.8001 16.5066 11.1235 16.7199 11.4101C16.9333 11.6968 17.1666 11.9668 17.4199 12.2201L19.5999 14.3601ZM12.3999 21.0001L17.9599 22.5201L22.7199 21.0401C22.6533 20.9201 22.5566 20.8168 22.4299 20.7301C22.3033 20.6435 22.1599 20.6001 21.9999 20.6001H17.9599C17.5999 20.6001 17.3133 20.5868 17.0999 20.5601C16.8866 20.5335 16.6666 20.4801 16.4399 20.4001L14.5799 19.7801L15.0199 18.2201L16.6399 18.7601C16.8666 18.8268 17.1333 18.8801 17.4399 18.9201C17.7466 18.9601 18.1999 18.9868 18.7999 19.0001C18.7999 18.8535 18.7566 18.7135 18.6699 18.5801C18.5833 18.4468 18.4799 18.3601 18.3599 18.3201L13.6799 16.6001H12.3999V21.0001ZM7.59994 23.8001V15.0001H13.6799C13.7733 15.0001 13.8666 15.0101 13.9599 15.0301C14.0533 15.0501 14.1399 15.0735 14.2199 15.1001L18.9199 16.8401C19.3599 17.0001 19.7166 17.2801 19.9899 17.6801C20.2633 18.0801 20.3999 18.5201 20.3999 19.0001H21.9999C22.6666 19.0001 23.2333 19.2201 23.6999 19.6601C24.1666 20.1001 24.3999 20.6801 24.3999 21.4001V22.2001L17.9999 24.2001L12.3999 22.6401V23.8001H7.59994ZM9.19994 22.2001H10.7999V16.6001H9.19994V22.2001Z" fill="var(--fill-0, #A855F7)"/>
</g>
</svg>
