<svg width="14" height="14" viewBox="0 0 14 14" fill="none" xmlns="http://www.w3.org/2000/svg">
  <rect x="1" y="1" width="12" height="12" rx="3" fill="white"/>
  <path d="M7 3.75C7.34518 3.75 7.625 4.02982 7.625 4.375V6.375H9.625C9.97018 6.375 10.25 6.65482 10.25 7C10.25 7.34518 9.97018 7.625 9.625 7.625H7.625V9.625C7.625 9.97018 7.34518 10.25 7 10.25C6.65482 10.25 6.375 9.97018 6.375 9.625V7.625H4.375C4.02982 7.625 3.75 7.34518 3.75 7C3.75 6.65482 4.02982 6.375 4.375 6.375H6.375V4.375C6.375 4.02982 6.65482 3.75 7 3.75Z" fill="#4C7EFF"/>
</svg>
